<mxfile host="Electron" agent="Mozilla/5.0 (Windows NT 10.0; Win64; x64) AppleWebKit/537.36 (KHTML, like Gecko) draw.io/24.7.17 Chrome/128.0.6613.36 Electron/32.0.1 Safari/537.36" version="24.7.17">
  <diagram name="Page-1" id="O9mMRjIm3MyOIPz--NnU">
    <mxGraphModel dx="4037" dy="1858" grid="1" gridSize="10" guides="1" tooltips="1" connect="1" arrows="1" fold="1" page="1" pageScale="1" pageWidth="850" pageHeight="1100" math="0" shadow="0">
      <root>
        <mxCell id="0" />
        <mxCell id="1" parent="0" />
        <mxCell id="XG64vlkq9O3piixc6rc2-4" value="" style="rounded=0;whiteSpace=wrap;html=1;fillColor=none;dashed=1;dashPattern=8 8;" vertex="1" parent="1">
          <mxGeometry x="1020" y="1045" width="630" height="375" as="geometry" />
        </mxCell>
        <mxCell id="3Gb79NHxu9fspyk5NEdr-2" value="&lt;span style=&quot;color: rgb(0, 0, 0); font-size: 16px; font-style: normal; font-variant-ligatures: normal; font-variant-caps: normal; letter-spacing: normal; orphans: 2; text-align: center; text-indent: 0px; text-transform: none; widows: 2; word-spacing: 0px; -webkit-text-stroke-width: 0px; white-space: normal; background-color: rgb(251, 251, 251); text-decoration-thickness: initial; text-decoration-style: initial; text-decoration-color: initial; float: none; display: inline !important;&quot;&gt;Encrypter_top&lt;/span&gt;" style="text;whiteSpace=wrap;html=1;fontSize=16;fontFamily=Courier New;fontStyle=1" parent="1" vertex="1">
          <mxGeometry x="140" y="190" width="110" height="40" as="geometry" />
        </mxCell>
        <mxCell id="3Gb79NHxu9fspyk5NEdr-5" style="edgeStyle=orthogonalEdgeStyle;rounded=0;orthogonalLoop=1;jettySize=auto;html=1;exitX=1;exitY=0.5;exitDx=0;exitDy=0;entryX=0;entryY=0.5;entryDx=0;entryDy=0;" parent="1" source="3Gb79NHxu9fspyk5NEdr-3" target="3Gb79NHxu9fspyk5NEdr-4" edge="1">
          <mxGeometry relative="1" as="geometry" />
        </mxCell>
        <mxCell id="3Gb79NHxu9fspyk5NEdr-3" value="&lt;span style=&quot;color: rgb(0, 0, 0); font-size: 13px; font-style: normal; font-variant-ligatures: normal; font-variant-caps: normal; letter-spacing: normal; orphans: 2; text-indent: 0px; text-transform: none; widows: 2; word-spacing: 0px; -webkit-text-stroke-width: 0px; white-space: normal; background-color: rgb(251, 251, 251); text-decoration-thickness: initial; text-decoration-style: initial; text-decoration-color: initial; float: none; display: inline !important;&quot;&gt;debouncer&lt;/span&gt;" style="text;whiteSpace=wrap;html=1;fontSize=13;fontFamily=Courier New;fontStyle=1;align=center;verticalAlign=middle;strokeColor=#FFB366;" parent="1" vertex="1">
          <mxGeometry x="270" y="260" width="160" height="40" as="geometry" />
        </mxCell>
        <mxCell id="3Gb79NHxu9fspyk5NEdr-15" style="edgeStyle=orthogonalEdgeStyle;rounded=0;orthogonalLoop=1;jettySize=auto;html=1;entryX=0;entryY=0.25;entryDx=0;entryDy=0;" parent="1" source="3Gb79NHxu9fspyk5NEdr-4" target="3Gb79NHxu9fspyk5NEdr-14" edge="1">
          <mxGeometry relative="1" as="geometry" />
        </mxCell>
        <mxCell id="3Gb79NHxu9fspyk5NEdr-4" value="&lt;span style=&quot;color: rgb(0, 0, 0); font-size: 13px; font-style: normal; font-variant-ligatures: normal; font-variant-caps: normal; letter-spacing: normal; orphans: 2; text-indent: 0px; text-transform: none; widows: 2; word-spacing: 0px; -webkit-text-stroke-width: 0px; white-space: normal; background-color: rgb(251, 251, 251); text-decoration-thickness: initial; text-decoration-style: initial; text-decoration-color: initial; float: none; display: inline !important;&quot;&gt;spot&lt;/span&gt;" style="text;whiteSpace=wrap;html=1;fontSize=13;fontFamily=Courier New;fontStyle=1;align=center;verticalAlign=middle;strokeColor=#7F00FF;" parent="1" vertex="1">
          <mxGeometry x="480" y="260" width="160" height="40" as="geometry" />
        </mxCell>
        <mxCell id="3Gb79NHxu9fspyk5NEdr-7" style="edgeStyle=orthogonalEdgeStyle;rounded=0;orthogonalLoop=1;jettySize=auto;html=1;exitX=1;exitY=0.5;exitDx=0;exitDy=0;" parent="1" source="3Gb79NHxu9fspyk5NEdr-6" target="3Gb79NHxu9fspyk5NEdr-3" edge="1">
          <mxGeometry relative="1" as="geometry" />
        </mxCell>
        <mxCell id="3Gb79NHxu9fspyk5NEdr-6" value="&lt;span style=&quot;color: rgb(0, 0, 0); font-size: 13px; font-style: normal; font-variant-ligatures: normal; font-variant-caps: normal; letter-spacing: normal; orphans: 2; text-indent: 0px; text-transform: none; widows: 2; word-spacing: 0px; -webkit-text-stroke-width: 0px; white-space: normal; background-color: rgb(251, 251, 251); text-decoration-thickness: initial; text-decoration-style: initial; text-decoration-color: initial; float: none; display: inline !important;&quot;&gt;btn_E&lt;/span&gt;" style="text;whiteSpace=wrap;html=1;fontSize=13;fontFamily=Courier New;fontStyle=1;align=center;verticalAlign=middle;strokeColor=none;" parent="1" vertex="1">
          <mxGeometry x="140" y="260" width="70" height="40" as="geometry" />
        </mxCell>
        <mxCell id="3Gb79NHxu9fspyk5NEdr-8" style="edgeStyle=orthogonalEdgeStyle;rounded=0;orthogonalLoop=1;jettySize=auto;html=1;exitX=1;exitY=0.5;exitDx=0;exitDy=0;entryX=0;entryY=0.5;entryDx=0;entryDy=0;" parent="1" source="3Gb79NHxu9fspyk5NEdr-9" target="3Gb79NHxu9fspyk5NEdr-10" edge="1">
          <mxGeometry relative="1" as="geometry" />
        </mxCell>
        <mxCell id="3Gb79NHxu9fspyk5NEdr-9" value="&lt;span style=&quot;color: rgb(0, 0, 0); font-size: 13px; font-style: normal; font-variant-ligatures: normal; font-variant-caps: normal; letter-spacing: normal; orphans: 2; text-indent: 0px; text-transform: none; widows: 2; word-spacing: 0px; -webkit-text-stroke-width: 0px; white-space: normal; background-color: rgb(251, 251, 251); text-decoration-thickness: initial; text-decoration-style: initial; text-decoration-color: initial; float: none; display: inline !important;&quot;&gt;debouncer&lt;/span&gt;" style="text;whiteSpace=wrap;html=1;fontSize=13;fontFamily=Courier New;fontStyle=1;align=center;verticalAlign=middle;strokeColor=#FFB366;" parent="1" vertex="1">
          <mxGeometry x="270" y="310" width="160" height="40" as="geometry" />
        </mxCell>
        <mxCell id="3Gb79NHxu9fspyk5NEdr-16" style="edgeStyle=orthogonalEdgeStyle;rounded=0;orthogonalLoop=1;jettySize=auto;html=1;entryX=0;entryY=0.75;entryDx=0;entryDy=0;" parent="1" source="3Gb79NHxu9fspyk5NEdr-10" target="3Gb79NHxu9fspyk5NEdr-14" edge="1">
          <mxGeometry relative="1" as="geometry" />
        </mxCell>
        <mxCell id="3Gb79NHxu9fspyk5NEdr-10" value="&lt;span style=&quot;color: rgb(0, 0, 0); font-size: 13px; font-style: normal; font-variant-ligatures: normal; font-variant-caps: normal; letter-spacing: normal; orphans: 2; text-indent: 0px; text-transform: none; widows: 2; word-spacing: 0px; -webkit-text-stroke-width: 0px; white-space: normal; background-color: rgb(251, 251, 251); text-decoration-thickness: initial; text-decoration-style: initial; text-decoration-color: initial; float: none; display: inline !important;&quot;&gt;spot&lt;/span&gt;" style="text;whiteSpace=wrap;html=1;fontSize=13;fontFamily=Courier New;fontStyle=1;align=center;verticalAlign=middle;strokeColor=#7F00FF;" parent="1" vertex="1">
          <mxGeometry x="480" y="310" width="160" height="40" as="geometry" />
        </mxCell>
        <mxCell id="3Gb79NHxu9fspyk5NEdr-11" style="edgeStyle=orthogonalEdgeStyle;rounded=0;orthogonalLoop=1;jettySize=auto;html=1;exitX=1;exitY=0.5;exitDx=0;exitDy=0;" parent="1" source="3Gb79NHxu9fspyk5NEdr-12" target="3Gb79NHxu9fspyk5NEdr-9" edge="1">
          <mxGeometry relative="1" as="geometry" />
        </mxCell>
        <mxCell id="3Gb79NHxu9fspyk5NEdr-12" value="&lt;span style=&quot;color: rgb(0, 0, 0); font-size: 13px; font-style: normal; font-variant-ligatures: normal; font-variant-caps: normal; letter-spacing: normal; orphans: 2; text-indent: 0px; text-transform: none; widows: 2; word-spacing: 0px; -webkit-text-stroke-width: 0px; white-space: normal; background-color: rgb(251, 251, 251); text-decoration-thickness: initial; text-decoration-style: initial; text-decoration-color: initial; float: none; display: inline !important;&quot;&gt;btn_W&lt;/span&gt;" style="text;whiteSpace=wrap;html=1;fontSize=13;fontFamily=Courier New;fontStyle=1;align=center;verticalAlign=middle;strokeColor=none;" parent="1" vertex="1">
          <mxGeometry x="140" y="310" width="70" height="40" as="geometry" />
        </mxCell>
        <mxCell id="3Gb79NHxu9fspyk5NEdr-17" style="edgeStyle=orthogonalEdgeStyle;rounded=0;orthogonalLoop=1;jettySize=auto;html=1;fillColor=#f8cecc;strokeColor=#b85450;" parent="1" source="3Gb79NHxu9fspyk5NEdr-14" edge="1">
          <mxGeometry relative="1" as="geometry">
            <mxPoint x="990" y="305" as="targetPoint" />
          </mxGeometry>
        </mxCell>
        <mxCell id="3Gb79NHxu9fspyk5NEdr-14" value="&lt;span style=&quot;color: rgb(0, 0, 0); font-size: 13px; font-style: normal; font-variant-ligatures: normal; font-variant-caps: normal; letter-spacing: normal; orphans: 2; text-indent: 0px; text-transform: none; widows: 2; word-spacing: 0px; -webkit-text-stroke-width: 0px; white-space: normal; background-color: rgb(251, 251, 251); text-decoration-thickness: initial; text-decoration-style: initial; text-decoration-color: initial; float: none; display: inline !important;&quot;&gt;eastWestShifter&lt;/span&gt;" style="text;whiteSpace=wrap;html=1;fontSize=13;fontFamily=Courier New;fontStyle=1;align=center;verticalAlign=middle;strokeColor=#0066CC;" parent="1" vertex="1">
          <mxGeometry x="740" y="270" width="160" height="70" as="geometry" />
        </mxCell>
        <mxCell id="3Gb79NHxu9fspyk5NEdr-19" value="&lt;font face=&quot;Courier New&quot;&gt;Index&lt;/font&gt;" style="text;html=1;align=center;verticalAlign=middle;whiteSpace=wrap;rounded=0;fontStyle=1" parent="1" vertex="1">
          <mxGeometry x="920" y="277" width="60" height="30" as="geometry" />
        </mxCell>
        <mxCell id="3Gb79NHxu9fspyk5NEdr-21" style="edgeStyle=orthogonalEdgeStyle;rounded=0;orthogonalLoop=1;jettySize=auto;html=1;" parent="1" source="3Gb79NHxu9fspyk5NEdr-20" edge="1">
          <mxGeometry relative="1" as="geometry">
            <mxPoint x="570" y="505" as="targetPoint" />
          </mxGeometry>
        </mxCell>
        <mxCell id="3Gb79NHxu9fspyk5NEdr-20" value="&lt;font size=&quot;1&quot; face=&quot;Courier New&quot;&gt;&lt;b style=&quot;font-size: 13px;&quot;&gt;CASE&lt;/b&gt;&lt;/font&gt;" style="rounded=0;whiteSpace=wrap;html=1;" parent="1" vertex="1">
          <mxGeometry x="350" y="420" width="120" height="170" as="geometry" />
        </mxCell>
        <mxCell id="3Gb79NHxu9fspyk5NEdr-22" value="&lt;font face=&quot;Courier New&quot;&gt;unencrypted letter&lt;/font&gt;" style="text;html=1;align=center;verticalAlign=middle;whiteSpace=wrap;rounded=0;fontStyle=1" parent="1" vertex="1">
          <mxGeometry x="530" y="460" width="60" height="30" as="geometry" />
        </mxCell>
        <mxCell id="3Gb79NHxu9fspyk5NEdr-24" value="&lt;font face=&quot;Courier New&quot;&gt;letter_1&lt;/font&gt;" style="text;html=1;align=center;verticalAlign=middle;whiteSpace=wrap;rounded=0;fontStyle=1" parent="1" vertex="1">
          <mxGeometry x="230" y="440" width="60" height="30" as="geometry" />
        </mxCell>
        <mxCell id="3Gb79NHxu9fspyk5NEdr-26" style="edgeStyle=orthogonalEdgeStyle;rounded=0;orthogonalLoop=1;jettySize=auto;html=1;entryX=0;entryY=0.25;entryDx=0;entryDy=0;" parent="1" source="3Gb79NHxu9fspyk5NEdr-24" target="3Gb79NHxu9fspyk5NEdr-20" edge="1">
          <mxGeometry relative="1" as="geometry" />
        </mxCell>
        <mxCell id="3Gb79NHxu9fspyk5NEdr-29" style="edgeStyle=orthogonalEdgeStyle;rounded=0;orthogonalLoop=1;jettySize=auto;html=1;entryX=0;entryY=0.75;entryDx=0;entryDy=0;" parent="1" source="3Gb79NHxu9fspyk5NEdr-27" target="3Gb79NHxu9fspyk5NEdr-20" edge="1">
          <mxGeometry relative="1" as="geometry" />
        </mxCell>
        <mxCell id="3Gb79NHxu9fspyk5NEdr-27" value="&lt;font face=&quot;Courier New&quot;&gt;letter_4&lt;/font&gt;" style="text;html=1;align=center;verticalAlign=middle;whiteSpace=wrap;rounded=0;fontStyle=1" parent="1" vertex="1">
          <mxGeometry x="230" y="540" width="60" height="30" as="geometry" />
        </mxCell>
        <mxCell id="3Gb79NHxu9fspyk5NEdr-28" value="&lt;font face=&quot;Courier New&quot;&gt;...&lt;/font&gt;" style="text;html=1;align=center;verticalAlign=middle;whiteSpace=wrap;rounded=0;fontStyle=1;rotation=90;" parent="1" vertex="1">
          <mxGeometry x="230" y="490" width="60" height="30" as="geometry" />
        </mxCell>
        <mxCell id="3Gb79NHxu9fspyk5NEdr-34" style="edgeStyle=orthogonalEdgeStyle;rounded=0;orthogonalLoop=1;jettySize=auto;html=1;exitX=0.5;exitY=0;exitDx=0;exitDy=0;fillColor=#f8cecc;strokeColor=#b85450;" parent="1" source="3Gb79NHxu9fspyk5NEdr-33" target="3Gb79NHxu9fspyk5NEdr-20" edge="1">
          <mxGeometry relative="1" as="geometry">
            <Array as="points">
              <mxPoint x="410" y="645" />
            </Array>
          </mxGeometry>
        </mxCell>
        <mxCell id="3Gb79NHxu9fspyk5NEdr-33" value="&lt;font face=&quot;Courier New&quot;&gt;Index&lt;/font&gt;" style="text;html=1;align=center;verticalAlign=middle;whiteSpace=wrap;rounded=0;fontStyle=1;direction=west;rotation=-90;" parent="1" vertex="1">
          <mxGeometry x="360" y="630" width="60" height="30" as="geometry" />
        </mxCell>
        <mxCell id="3Gb79NHxu9fspyk5NEdr-44" style="edgeStyle=orthogonalEdgeStyle;rounded=0;orthogonalLoop=1;jettySize=auto;html=1;" parent="1" edge="1">
          <mxGeometry relative="1" as="geometry">
            <mxPoint x="-60.00000000000023" y="1010" as="targetPoint" />
            <mxPoint x="-150" y="1010.0285714285715" as="sourcePoint" />
          </mxGeometry>
        </mxCell>
        <mxCell id="3Gb79NHxu9fspyk5NEdr-36" value="&lt;font size=&quot;1&quot; face=&quot;Courier New&quot;&gt;&lt;b style=&quot;font-size: 13px;&quot;&gt;hexToCoords&lt;/b&gt;&lt;/font&gt;&lt;div&gt;&lt;font size=&quot;1&quot; face=&quot;Courier New&quot;&gt;&lt;b style=&quot;font-size: 13px;&quot;&gt;(CASE)&lt;/b&gt;&lt;/font&gt;&lt;/div&gt;" style="rounded=0;whiteSpace=wrap;html=1;fillColor=#f8cecc;strokeColor=#b85450;" parent="1" vertex="1">
          <mxGeometry x="-270" y="990" width="120" height="70" as="geometry" />
        </mxCell>
        <mxCell id="3Gb79NHxu9fspyk5NEdr-45" style="edgeStyle=orthogonalEdgeStyle;rounded=0;orthogonalLoop=1;jettySize=auto;html=1;" parent="1" source="3Gb79NHxu9fspyk5NEdr-42" target="3Gb79NHxu9fspyk5NEdr-36" edge="1">
          <mxGeometry relative="1" as="geometry" />
        </mxCell>
        <mxCell id="3Gb79NHxu9fspyk5NEdr-42" value="&lt;font face=&quot;Courier New&quot;&gt;letter_1&lt;/font&gt;" style="text;html=1;align=center;verticalAlign=middle;whiteSpace=wrap;rounded=0;fontStyle=1" parent="1" vertex="1">
          <mxGeometry x="-400" y="1010" width="60" height="30" as="geometry" />
        </mxCell>
        <mxCell id="3Gb79NHxu9fspyk5NEdr-46" value="&lt;font face=&quot;Courier New&quot;&gt;m1_coords&lt;/font&gt;" style="text;html=1;align=center;verticalAlign=middle;whiteSpace=wrap;rounded=0;fontStyle=1;fontColor=#6600CC;" parent="1" vertex="1">
          <mxGeometry x="-50" y="990" width="60" height="30" as="geometry" />
        </mxCell>
        <mxCell id="3Gb79NHxu9fspyk5NEdr-47" style="edgeStyle=orthogonalEdgeStyle;rounded=0;orthogonalLoop=1;jettySize=auto;html=1;" parent="1" edge="1">
          <mxGeometry relative="1" as="geometry">
            <mxPoint x="-60.00000000000023" y="1040" as="targetPoint" />
            <mxPoint x="-150" y="1040.0285714285715" as="sourcePoint" />
          </mxGeometry>
        </mxCell>
        <mxCell id="3Gb79NHxu9fspyk5NEdr-48" value="&lt;font face=&quot;Courier New&quot;&gt;n1_coords&lt;/font&gt;" style="text;html=1;align=center;verticalAlign=middle;whiteSpace=wrap;rounded=0;fontStyle=1;fontColor=#6600CC;" parent="1" vertex="1">
          <mxGeometry x="-50" y="1020" width="60" height="30" as="geometry" />
        </mxCell>
        <mxCell id="3Gb79NHxu9fspyk5NEdr-49" style="edgeStyle=orthogonalEdgeStyle;rounded=0;orthogonalLoop=1;jettySize=auto;html=1;" parent="1" edge="1">
          <mxGeometry relative="1" as="geometry">
            <mxPoint x="-60.00000000000023" y="1110" as="targetPoint" />
            <mxPoint x="-150" y="1110.0285714285715" as="sourcePoint" />
          </mxGeometry>
        </mxCell>
        <mxCell id="3Gb79NHxu9fspyk5NEdr-50" value="&lt;font size=&quot;1&quot; face=&quot;Courier New&quot;&gt;&lt;b style=&quot;font-size: 13px;&quot;&gt;hexToCoords&lt;/b&gt;&lt;/font&gt;&lt;div&gt;&lt;font size=&quot;1&quot; face=&quot;Courier New&quot;&gt;&lt;b style=&quot;font-size: 13px;&quot;&gt;(CASE)&lt;/b&gt;&lt;/font&gt;&lt;/div&gt;" style="rounded=0;whiteSpace=wrap;html=1;fillColor=#f8cecc;strokeColor=#b85450;" parent="1" vertex="1">
          <mxGeometry x="-270" y="1090" width="120" height="70" as="geometry" />
        </mxCell>
        <mxCell id="3Gb79NHxu9fspyk5NEdr-51" style="edgeStyle=orthogonalEdgeStyle;rounded=0;orthogonalLoop=1;jettySize=auto;html=1;" parent="1" source="3Gb79NHxu9fspyk5NEdr-52" target="3Gb79NHxu9fspyk5NEdr-50" edge="1">
          <mxGeometry relative="1" as="geometry" />
        </mxCell>
        <mxCell id="3Gb79NHxu9fspyk5NEdr-52" value="&lt;font face=&quot;Courier New&quot;&gt;letter_4&lt;/font&gt;" style="text;html=1;align=center;verticalAlign=middle;whiteSpace=wrap;rounded=0;fontStyle=1" parent="1" vertex="1">
          <mxGeometry x="-400" y="1110" width="60" height="30" as="geometry" />
        </mxCell>
        <mxCell id="3Gb79NHxu9fspyk5NEdr-53" value="&lt;font face=&quot;Courier New&quot;&gt;m4_coords&lt;/font&gt;" style="text;html=1;align=center;verticalAlign=middle;whiteSpace=wrap;rounded=0;fontStyle=1;fontColor=#6600CC;" parent="1" vertex="1">
          <mxGeometry x="-50" y="1090" width="60" height="30" as="geometry" />
        </mxCell>
        <mxCell id="3Gb79NHxu9fspyk5NEdr-54" style="edgeStyle=orthogonalEdgeStyle;rounded=0;orthogonalLoop=1;jettySize=auto;html=1;" parent="1" edge="1">
          <mxGeometry relative="1" as="geometry">
            <mxPoint x="-60.00000000000023" y="1140" as="targetPoint" />
            <mxPoint x="-150" y="1140.0285714285715" as="sourcePoint" />
          </mxGeometry>
        </mxCell>
        <mxCell id="3Gb79NHxu9fspyk5NEdr-55" value="&lt;font face=&quot;Courier New&quot;&gt;n4_coords&lt;/font&gt;" style="text;html=1;align=center;verticalAlign=middle;whiteSpace=wrap;rounded=0;fontStyle=1;fontColor=#6600CC;" parent="1" vertex="1">
          <mxGeometry x="-50" y="1120" width="60" height="30" as="geometry" />
        </mxCell>
        <mxCell id="3Gb79NHxu9fspyk5NEdr-56" value="&lt;font face=&quot;Courier New&quot;&gt;...&lt;/font&gt;" style="text;html=1;align=center;verticalAlign=middle;whiteSpace=wrap;rounded=0;fontStyle=1;rotation=90;" parent="1" vertex="1">
          <mxGeometry x="-400" y="1060" width="60" height="30" as="geometry" />
        </mxCell>
        <mxCell id="3Gb79NHxu9fspyk5NEdr-57" value="&lt;font face=&quot;Courier New&quot;&gt;...&lt;/font&gt;" style="text;html=1;align=center;verticalAlign=middle;whiteSpace=wrap;rounded=0;fontStyle=1;rotation=90;fontColor=#6600CC;" parent="1" vertex="1">
          <mxGeometry x="-60" y="1060" width="60" height="30" as="geometry" />
        </mxCell>
        <mxCell id="3Gb79NHxu9fspyk5NEdr-61" style="edgeStyle=orthogonalEdgeStyle;rounded=0;orthogonalLoop=1;jettySize=auto;html=1;" parent="1" source="3Gb79NHxu9fspyk5NEdr-58" edge="1">
          <mxGeometry relative="1" as="geometry">
            <mxPoint x="539.9999999999998" y="1585" as="targetPoint" />
          </mxGeometry>
        </mxCell>
        <mxCell id="3Gb79NHxu9fspyk5NEdr-58" value="&lt;font face=&quot;Courier New&quot;&gt;&lt;span style=&quot;font-size: 13px;&quot;&gt;&lt;b&gt;toKeyboardHexEncoder&lt;/b&gt;&lt;/span&gt;&lt;/font&gt;" style="rounded=0;whiteSpace=wrap;html=1;fillColor=#dae8fc;strokeColor=#6c8ebf;" parent="1" vertex="1">
          <mxGeometry x="290" y="1550" width="190" height="70" as="geometry" />
        </mxCell>
        <mxCell id="3Gb79NHxu9fspyk5NEdr-60" style="edgeStyle=orthogonalEdgeStyle;rounded=0;orthogonalLoop=1;jettySize=auto;html=1;exitX=1;exitY=0.5;exitDx=0;exitDy=0;" parent="1" source="3Gb79NHxu9fspyk5NEdr-59" target="3Gb79NHxu9fspyk5NEdr-58" edge="1">
          <mxGeometry relative="1" as="geometry" />
        </mxCell>
        <mxCell id="3Gb79NHxu9fspyk5NEdr-59" value="&lt;font face=&quot;Courier New&quot;&gt;n1_coords&lt;/font&gt;&lt;div&gt;&lt;font face=&quot;Courier New&quot;&gt;(3 bit binary)&lt;/font&gt;&lt;/div&gt;" style="text;html=1;align=center;verticalAlign=middle;whiteSpace=wrap;rounded=0;fontStyle=1;fontColor=#6600CC;" parent="1" vertex="1">
          <mxGeometry x="110" y="1570" width="120" height="30" as="geometry" />
        </mxCell>
        <mxCell id="3Gb79NHxu9fspyk5NEdr-62" value="&lt;font face=&quot;Courier New&quot;&gt;n1_coords&lt;/font&gt;&lt;div&gt;&lt;font face=&quot;Courier New&quot;&gt;(8 bit PS2 Hex)&lt;/font&gt;&lt;/div&gt;" style="text;html=1;align=center;verticalAlign=middle;whiteSpace=wrap;rounded=0;fontStyle=1" parent="1" vertex="1">
          <mxGeometry x="550" y="1570" width="120" height="30" as="geometry" />
        </mxCell>
        <mxCell id="3Gb79NHxu9fspyk5NEdr-63" style="edgeStyle=orthogonalEdgeStyle;rounded=0;orthogonalLoop=1;jettySize=auto;html=1;" parent="1" source="3Gb79NHxu9fspyk5NEdr-64" edge="1">
          <mxGeometry relative="1" as="geometry">
            <mxPoint x="539.9999999999998" y="1665" as="targetPoint" />
          </mxGeometry>
        </mxCell>
        <mxCell id="3Gb79NHxu9fspyk5NEdr-64" value="&lt;font face=&quot;Courier New&quot;&gt;&lt;span style=&quot;font-size: 13px;&quot;&gt;&lt;b&gt;toKeyboardHexEncoder&lt;/b&gt;&lt;/span&gt;&lt;/font&gt;" style="rounded=0;whiteSpace=wrap;html=1;fillColor=#dae8fc;strokeColor=#6c8ebf;" parent="1" vertex="1">
          <mxGeometry x="290" y="1630" width="190" height="70" as="geometry" />
        </mxCell>
        <mxCell id="3Gb79NHxu9fspyk5NEdr-65" style="edgeStyle=orthogonalEdgeStyle;rounded=0;orthogonalLoop=1;jettySize=auto;html=1;exitX=1;exitY=0.5;exitDx=0;exitDy=0;" parent="1" source="3Gb79NHxu9fspyk5NEdr-66" target="3Gb79NHxu9fspyk5NEdr-64" edge="1">
          <mxGeometry relative="1" as="geometry" />
        </mxCell>
        <mxCell id="3Gb79NHxu9fspyk5NEdr-66" value="&lt;font face=&quot;Courier New&quot;&gt;m1_coords&lt;/font&gt;&lt;div&gt;&lt;font face=&quot;Courier New&quot;&gt;(3 bit binary)&lt;/font&gt;&lt;/div&gt;" style="text;html=1;align=center;verticalAlign=middle;whiteSpace=wrap;rounded=0;fontStyle=1;fontColor=#6600CC;" parent="1" vertex="1">
          <mxGeometry x="110" y="1650" width="120" height="30" as="geometry" />
        </mxCell>
        <mxCell id="3Gb79NHxu9fspyk5NEdr-67" value="&lt;font face=&quot;Courier New&quot;&gt;m1_coords&lt;/font&gt;&lt;div&gt;&lt;font face=&quot;Courier New&quot;&gt;(8 bit PS2 Hex)&lt;/font&gt;&lt;/div&gt;" style="text;html=1;align=center;verticalAlign=middle;whiteSpace=wrap;rounded=0;fontStyle=1" parent="1" vertex="1">
          <mxGeometry x="550" y="1650" width="120" height="30" as="geometry" />
        </mxCell>
        <mxCell id="3Gb79NHxu9fspyk5NEdr-68" style="edgeStyle=orthogonalEdgeStyle;rounded=0;orthogonalLoop=1;jettySize=auto;html=1;" parent="1" source="3Gb79NHxu9fspyk5NEdr-69" edge="1">
          <mxGeometry relative="1" as="geometry">
            <mxPoint x="539.9999999999998" y="1785" as="targetPoint" />
          </mxGeometry>
        </mxCell>
        <mxCell id="3Gb79NHxu9fspyk5NEdr-69" value="&lt;font face=&quot;Courier New&quot;&gt;&lt;span style=&quot;font-size: 13px;&quot;&gt;&lt;b&gt;toKeyboardHexEncoder&lt;/b&gt;&lt;/span&gt;&lt;/font&gt;" style="rounded=0;whiteSpace=wrap;html=1;fillColor=#dae8fc;strokeColor=#6c8ebf;" parent="1" vertex="1">
          <mxGeometry x="290" y="1750" width="190" height="70" as="geometry" />
        </mxCell>
        <mxCell id="3Gb79NHxu9fspyk5NEdr-70" style="edgeStyle=orthogonalEdgeStyle;rounded=0;orthogonalLoop=1;jettySize=auto;html=1;exitX=1;exitY=0.5;exitDx=0;exitDy=0;" parent="1" source="3Gb79NHxu9fspyk5NEdr-71" target="3Gb79NHxu9fspyk5NEdr-69" edge="1">
          <mxGeometry relative="1" as="geometry" />
        </mxCell>
        <mxCell id="3Gb79NHxu9fspyk5NEdr-71" value="&lt;font face=&quot;Courier New&quot;&gt;n4_coords&lt;/font&gt;&lt;div&gt;&lt;font face=&quot;Courier New&quot;&gt;(3 bit binary)&lt;/font&gt;&lt;/div&gt;" style="text;html=1;align=center;verticalAlign=middle;whiteSpace=wrap;rounded=0;fontStyle=1;fontColor=#6600CC;" parent="1" vertex="1">
          <mxGeometry x="110" y="1770" width="120" height="30" as="geometry" />
        </mxCell>
        <mxCell id="3Gb79NHxu9fspyk5NEdr-72" value="&lt;font face=&quot;Courier New&quot;&gt;n4_coords&lt;/font&gt;&lt;div&gt;&lt;font face=&quot;Courier New&quot;&gt;(8 bit PS2 Hex)&lt;/font&gt;&lt;/div&gt;" style="text;html=1;align=center;verticalAlign=middle;whiteSpace=wrap;rounded=0;fontStyle=1" parent="1" vertex="1">
          <mxGeometry x="550" y="1770" width="120" height="30" as="geometry" />
        </mxCell>
        <mxCell id="3Gb79NHxu9fspyk5NEdr-73" style="edgeStyle=orthogonalEdgeStyle;rounded=0;orthogonalLoop=1;jettySize=auto;html=1;" parent="1" source="3Gb79NHxu9fspyk5NEdr-74" edge="1">
          <mxGeometry relative="1" as="geometry">
            <mxPoint x="539.9999999999998" y="1865" as="targetPoint" />
          </mxGeometry>
        </mxCell>
        <mxCell id="3Gb79NHxu9fspyk5NEdr-74" value="&lt;font face=&quot;Courier New&quot;&gt;&lt;span style=&quot;font-size: 13px;&quot;&gt;&lt;b&gt;toKeyboardHexEncoder&lt;/b&gt;&lt;/span&gt;&lt;/font&gt;" style="rounded=0;whiteSpace=wrap;html=1;fillColor=#dae8fc;strokeColor=#6c8ebf;" parent="1" vertex="1">
          <mxGeometry x="290" y="1830" width="190" height="70" as="geometry" />
        </mxCell>
        <mxCell id="3Gb79NHxu9fspyk5NEdr-75" style="edgeStyle=orthogonalEdgeStyle;rounded=0;orthogonalLoop=1;jettySize=auto;html=1;exitX=1;exitY=0.5;exitDx=0;exitDy=0;" parent="1" source="3Gb79NHxu9fspyk5NEdr-76" target="3Gb79NHxu9fspyk5NEdr-74" edge="1">
          <mxGeometry relative="1" as="geometry" />
        </mxCell>
        <mxCell id="3Gb79NHxu9fspyk5NEdr-76" value="&lt;font face=&quot;Courier New&quot;&gt;m4_coords&lt;/font&gt;&lt;div&gt;&lt;font face=&quot;Courier New&quot;&gt;(3 bit binary)&lt;/font&gt;&lt;/div&gt;" style="text;html=1;align=center;verticalAlign=middle;whiteSpace=wrap;rounded=0;fontStyle=1;fontColor=#6600CC;" parent="1" vertex="1">
          <mxGeometry x="110" y="1850" width="120" height="30" as="geometry" />
        </mxCell>
        <mxCell id="3Gb79NHxu9fspyk5NEdr-77" value="&lt;font face=&quot;Courier New&quot;&gt;m4_coords&lt;/font&gt;&lt;div&gt;&lt;font face=&quot;Courier New&quot;&gt;(8 bit PS2 Hex)&lt;/font&gt;&lt;/div&gt;" style="text;html=1;align=center;verticalAlign=middle;whiteSpace=wrap;rounded=0;fontStyle=1" parent="1" vertex="1">
          <mxGeometry x="550" y="1850" width="120" height="30" as="geometry" />
        </mxCell>
        <mxCell id="3Gb79NHxu9fspyk5NEdr-78" value="&lt;font face=&quot;Courier New&quot;&gt;...&lt;/font&gt;" style="text;html=1;align=center;verticalAlign=middle;whiteSpace=wrap;rounded=0;fontStyle=1;rotation=90;fontColor=#6600CC;" parent="1" vertex="1">
          <mxGeometry x="150" y="1710" width="60" height="30" as="geometry" />
        </mxCell>
        <mxCell id="3Gb79NHxu9fspyk5NEdr-79" value="&lt;font face=&quot;Courier New&quot;&gt;...&lt;/font&gt;" style="text;html=1;align=center;verticalAlign=middle;whiteSpace=wrap;rounded=0;fontStyle=1;rotation=90;" parent="1" vertex="1">
          <mxGeometry x="570" y="1710" width="60" height="30" as="geometry" />
        </mxCell>
        <mxCell id="3Gb79NHxu9fspyk5NEdr-80" value="&lt;b&gt;&lt;font style=&quot;font-size: 17px;&quot;&gt;Input Letter and ouput (m,n)&lt;/font&gt;&lt;/b&gt;" style="text;html=1;align=left;verticalAlign=middle;whiteSpace=wrap;rounded=0;" parent="1" vertex="1">
          <mxGeometry x="-500" y="960" width="330" height="30" as="geometry" />
        </mxCell>
        <mxCell id="3Gb79NHxu9fspyk5NEdr-81" value="&lt;b&gt;&lt;font style=&quot;font-size: 17px;&quot;&gt;Convert coordinate to PS2 hex&lt;/font&gt;&lt;/b&gt;" style="text;html=1;align=left;verticalAlign=middle;whiteSpace=wrap;rounded=0;" parent="1" vertex="1">
          <mxGeometry x="120" y="1510" width="330" height="30" as="geometry" />
        </mxCell>
        <mxCell id="3Gb79NHxu9fspyk5NEdr-82" style="edgeStyle=orthogonalEdgeStyle;rounded=0;orthogonalLoop=1;jettySize=auto;html=1;" parent="1" source="3Gb79NHxu9fspyk5NEdr-83" edge="1">
          <mxGeometry relative="1" as="geometry">
            <mxPoint x="529.9999999999998" y="2055" as="targetPoint" />
          </mxGeometry>
        </mxCell>
        <mxCell id="3Gb79NHxu9fspyk5NEdr-83" value="&lt;font face=&quot;Courier New&quot;&gt;&lt;span style=&quot;font-size: 13px;&quot;&gt;&lt;b&gt;toKeyboardHexEncoder&lt;/b&gt;&lt;/span&gt;&lt;/font&gt;" style="rounded=0;whiteSpace=wrap;html=1;fillColor=#dae8fc;strokeColor=#6c8ebf;" parent="1" vertex="1">
          <mxGeometry x="280" y="2020" width="190" height="70" as="geometry" />
        </mxCell>
        <mxCell id="3Gb79NHxu9fspyk5NEdr-84" style="edgeStyle=orthogonalEdgeStyle;rounded=0;orthogonalLoop=1;jettySize=auto;html=1;exitX=1;exitY=0.5;exitDx=0;exitDy=0;" parent="1" source="3Gb79NHxu9fspyk5NEdr-85" target="3Gb79NHxu9fspyk5NEdr-83" edge="1">
          <mxGeometry relative="1" as="geometry" />
        </mxCell>
        <mxCell id="3Gb79NHxu9fspyk5NEdr-85" value="&lt;font face=&quot;Courier New&quot;&gt;n1_coords&lt;/font&gt;&lt;div&gt;&lt;font face=&quot;Courier New&quot;&gt;(3 bit binary)&lt;/font&gt;&lt;/div&gt;" style="text;html=1;align=center;verticalAlign=middle;whiteSpace=wrap;rounded=0;fontStyle=1;fontColor=#CC00CC;" parent="1" vertex="1">
          <mxGeometry x="100" y="2040" width="120" height="30" as="geometry" />
        </mxCell>
        <mxCell id="3Gb79NHxu9fspyk5NEdr-86" value="&lt;font face=&quot;Courier New&quot;&gt;n1_coords&lt;/font&gt;&lt;div&gt;&lt;font face=&quot;Courier New&quot;&gt;(8 bit PS2 Hex)&lt;/font&gt;&lt;/div&gt;" style="text;html=1;align=center;verticalAlign=middle;whiteSpace=wrap;rounded=0;fontStyle=1" parent="1" vertex="1">
          <mxGeometry x="540" y="2040" width="120" height="30" as="geometry" />
        </mxCell>
        <mxCell id="3Gb79NHxu9fspyk5NEdr-87" style="edgeStyle=orthogonalEdgeStyle;rounded=0;orthogonalLoop=1;jettySize=auto;html=1;" parent="1" source="3Gb79NHxu9fspyk5NEdr-88" edge="1">
          <mxGeometry relative="1" as="geometry">
            <mxPoint x="529.9999999999998" y="2135" as="targetPoint" />
          </mxGeometry>
        </mxCell>
        <mxCell id="3Gb79NHxu9fspyk5NEdr-88" value="&lt;font face=&quot;Courier New&quot;&gt;&lt;span style=&quot;font-size: 13px;&quot;&gt;&lt;b&gt;toKeyboardHexEncoder&lt;/b&gt;&lt;/span&gt;&lt;/font&gt;" style="rounded=0;whiteSpace=wrap;html=1;fillColor=#dae8fc;strokeColor=#6c8ebf;" parent="1" vertex="1">
          <mxGeometry x="280" y="2100" width="190" height="70" as="geometry" />
        </mxCell>
        <mxCell id="3Gb79NHxu9fspyk5NEdr-89" style="edgeStyle=orthogonalEdgeStyle;rounded=0;orthogonalLoop=1;jettySize=auto;html=1;exitX=1;exitY=0.5;exitDx=0;exitDy=0;" parent="1" source="3Gb79NHxu9fspyk5NEdr-90" target="3Gb79NHxu9fspyk5NEdr-88" edge="1">
          <mxGeometry relative="1" as="geometry" />
        </mxCell>
        <mxCell id="3Gb79NHxu9fspyk5NEdr-90" value="&lt;font face=&quot;Courier New&quot;&gt;m1_coords&lt;/font&gt;&lt;div&gt;&lt;font face=&quot;Courier New&quot;&gt;(3 bit binary)&lt;/font&gt;&lt;/div&gt;" style="text;html=1;align=center;verticalAlign=middle;whiteSpace=wrap;rounded=0;fontStyle=1;fontColor=#CC00CC;" parent="1" vertex="1">
          <mxGeometry x="100" y="2120" width="120" height="30" as="geometry" />
        </mxCell>
        <mxCell id="3Gb79NHxu9fspyk5NEdr-91" value="&lt;font face=&quot;Courier New&quot;&gt;m1_coords&lt;/font&gt;&lt;div&gt;&lt;font face=&quot;Courier New&quot;&gt;(8 bit PS2 Hex)&lt;/font&gt;&lt;/div&gt;" style="text;html=1;align=center;verticalAlign=middle;whiteSpace=wrap;rounded=0;fontStyle=1" parent="1" vertex="1">
          <mxGeometry x="540" y="2120" width="120" height="30" as="geometry" />
        </mxCell>
        <mxCell id="3Gb79NHxu9fspyk5NEdr-92" style="edgeStyle=orthogonalEdgeStyle;rounded=0;orthogonalLoop=1;jettySize=auto;html=1;" parent="1" source="3Gb79NHxu9fspyk5NEdr-93" edge="1">
          <mxGeometry relative="1" as="geometry">
            <mxPoint x="529.9999999999998" y="2255" as="targetPoint" />
          </mxGeometry>
        </mxCell>
        <mxCell id="3Gb79NHxu9fspyk5NEdr-93" value="&lt;font face=&quot;Courier New&quot;&gt;&lt;span style=&quot;font-size: 13px;&quot;&gt;&lt;b&gt;toKeyboardHexEncoder&lt;/b&gt;&lt;/span&gt;&lt;/font&gt;" style="rounded=0;whiteSpace=wrap;html=1;fillColor=#dae8fc;strokeColor=#6c8ebf;" parent="1" vertex="1">
          <mxGeometry x="280" y="2220" width="190" height="70" as="geometry" />
        </mxCell>
        <mxCell id="3Gb79NHxu9fspyk5NEdr-94" style="edgeStyle=orthogonalEdgeStyle;rounded=0;orthogonalLoop=1;jettySize=auto;html=1;exitX=1;exitY=0.5;exitDx=0;exitDy=0;" parent="1" source="3Gb79NHxu9fspyk5NEdr-95" target="3Gb79NHxu9fspyk5NEdr-93" edge="1">
          <mxGeometry relative="1" as="geometry" />
        </mxCell>
        <mxCell id="3Gb79NHxu9fspyk5NEdr-95" value="&lt;font face=&quot;Courier New&quot;&gt;n4_coords&lt;/font&gt;&lt;div&gt;&lt;font face=&quot;Courier New&quot;&gt;(3 bit binary)&lt;/font&gt;&lt;/div&gt;" style="text;html=1;align=center;verticalAlign=middle;whiteSpace=wrap;rounded=0;fontStyle=1;fontColor=#CC00CC;" parent="1" vertex="1">
          <mxGeometry x="100" y="2240" width="120" height="30" as="geometry" />
        </mxCell>
        <mxCell id="3Gb79NHxu9fspyk5NEdr-96" value="&lt;font face=&quot;Courier New&quot;&gt;n4_coords&lt;/font&gt;&lt;div&gt;&lt;font face=&quot;Courier New&quot;&gt;(8 bit PS2 Hex)&lt;/font&gt;&lt;/div&gt;" style="text;html=1;align=center;verticalAlign=middle;whiteSpace=wrap;rounded=0;fontStyle=1" parent="1" vertex="1">
          <mxGeometry x="540" y="2240" width="120" height="30" as="geometry" />
        </mxCell>
        <mxCell id="3Gb79NHxu9fspyk5NEdr-97" style="edgeStyle=orthogonalEdgeStyle;rounded=0;orthogonalLoop=1;jettySize=auto;html=1;" parent="1" source="3Gb79NHxu9fspyk5NEdr-98" edge="1">
          <mxGeometry relative="1" as="geometry">
            <mxPoint x="529.9999999999998" y="2335" as="targetPoint" />
          </mxGeometry>
        </mxCell>
        <mxCell id="3Gb79NHxu9fspyk5NEdr-98" value="&lt;font face=&quot;Courier New&quot;&gt;&lt;span style=&quot;font-size: 13px;&quot;&gt;&lt;b&gt;toKeyboardHexEncoder&lt;/b&gt;&lt;/span&gt;&lt;/font&gt;" style="rounded=0;whiteSpace=wrap;html=1;fillColor=#dae8fc;strokeColor=#6c8ebf;" parent="1" vertex="1">
          <mxGeometry x="280" y="2300" width="190" height="70" as="geometry" />
        </mxCell>
        <mxCell id="3Gb79NHxu9fspyk5NEdr-99" style="edgeStyle=orthogonalEdgeStyle;rounded=0;orthogonalLoop=1;jettySize=auto;html=1;exitX=1;exitY=0.5;exitDx=0;exitDy=0;" parent="1" source="3Gb79NHxu9fspyk5NEdr-100" target="3Gb79NHxu9fspyk5NEdr-98" edge="1">
          <mxGeometry relative="1" as="geometry" />
        </mxCell>
        <mxCell id="3Gb79NHxu9fspyk5NEdr-100" value="&lt;font face=&quot;Courier New&quot;&gt;m4_coords&lt;/font&gt;&lt;div&gt;&lt;font face=&quot;Courier New&quot;&gt;(3 bit binary)&lt;/font&gt;&lt;/div&gt;" style="text;html=1;align=center;verticalAlign=middle;whiteSpace=wrap;rounded=0;fontStyle=1;fontColor=#CC00CC;" parent="1" vertex="1">
          <mxGeometry x="100" y="2320" width="120" height="30" as="geometry" />
        </mxCell>
        <mxCell id="3Gb79NHxu9fspyk5NEdr-101" value="&lt;font face=&quot;Courier New&quot;&gt;m4_coords&lt;/font&gt;&lt;div&gt;&lt;font face=&quot;Courier New&quot;&gt;(8 bit PS2 Hex)&lt;/font&gt;&lt;/div&gt;" style="text;html=1;align=center;verticalAlign=middle;whiteSpace=wrap;rounded=0;fontStyle=1" parent="1" vertex="1">
          <mxGeometry x="540" y="2320" width="120" height="30" as="geometry" />
        </mxCell>
        <mxCell id="3Gb79NHxu9fspyk5NEdr-102" value="&lt;font face=&quot;Courier New&quot;&gt;...&lt;/font&gt;" style="text;html=1;align=center;verticalAlign=middle;whiteSpace=wrap;rounded=0;fontStyle=1;rotation=90;" parent="1" vertex="1">
          <mxGeometry x="140" y="2180" width="60" height="30" as="geometry" />
        </mxCell>
        <mxCell id="3Gb79NHxu9fspyk5NEdr-103" value="&lt;font face=&quot;Courier New&quot;&gt;...&lt;/font&gt;" style="text;html=1;align=center;verticalAlign=middle;whiteSpace=wrap;rounded=0;fontStyle=1;rotation=90;" parent="1" vertex="1">
          <mxGeometry x="560" y="2180" width="60" height="30" as="geometry" />
        </mxCell>
        <mxCell id="3Gb79NHxu9fspyk5NEdr-104" value="&lt;b&gt;&lt;font style=&quot;font-size: 17px;&quot;&gt;Convert &lt;u style=&quot;&quot;&gt;encrypted&lt;/u&gt; letters coordinate to PS2 hex&lt;/font&gt;&lt;/b&gt;" style="text;html=1;align=left;verticalAlign=middle;whiteSpace=wrap;rounded=0;fontColor=#CC00CC;" parent="1" vertex="1">
          <mxGeometry x="110" y="1990" width="440" height="30" as="geometry" />
        </mxCell>
        <mxCell id="3Gb79NHxu9fspyk5NEdr-106" value="&lt;span style=&quot;text-align: left;&quot;&gt;polybiusEncrypterOptions&lt;/span&gt;" style="rounded=0;whiteSpace=wrap;html=1;fillColor=#d5e8d4;strokeColor=#82b366;fontFamily=Courier New;fontStyle=1" parent="1" vertex="1">
          <mxGeometry x="290" y="1000" width="190" height="130" as="geometry" />
        </mxCell>
        <mxCell id="3Gb79NHxu9fspyk5NEdr-111" style="edgeStyle=orthogonalEdgeStyle;rounded=0;orthogonalLoop=1;jettySize=auto;html=1;exitX=1;exitY=0.5;exitDx=0;exitDy=0;" parent="1" source="3Gb79NHxu9fspyk5NEdr-112" edge="1">
          <mxGeometry relative="1" as="geometry">
            <mxPoint x="290" y="1025" as="targetPoint" />
          </mxGeometry>
        </mxCell>
        <mxCell id="3Gb79NHxu9fspyk5NEdr-112" value="&lt;font face=&quot;Courier New&quot;&gt;n1_coords&lt;/font&gt;&lt;div&gt;&lt;font face=&quot;Courier New&quot;&gt;(3 bit binary)&lt;/font&gt;&lt;/div&gt;" style="text;html=1;align=center;verticalAlign=middle;whiteSpace=wrap;rounded=0;fontStyle=1;fontColor=#6600CC;" parent="1" vertex="1">
          <mxGeometry x="110" y="1010" width="120" height="30" as="geometry" />
        </mxCell>
        <mxCell id="3Gb79NHxu9fspyk5NEdr-113" style="edgeStyle=orthogonalEdgeStyle;rounded=0;orthogonalLoop=1;jettySize=auto;html=1;exitX=1;exitY=0.5;exitDx=0;exitDy=0;" parent="1" source="3Gb79NHxu9fspyk5NEdr-114" edge="1">
          <mxGeometry relative="1" as="geometry">
            <mxPoint x="290" y="1105" as="targetPoint" />
          </mxGeometry>
        </mxCell>
        <mxCell id="3Gb79NHxu9fspyk5NEdr-114" value="&lt;font face=&quot;Courier New&quot;&gt;m1_coords&lt;/font&gt;&lt;div&gt;&lt;font face=&quot;Courier New&quot;&gt;(3 bit binary)&lt;/font&gt;&lt;/div&gt;" style="text;html=1;align=center;verticalAlign=middle;whiteSpace=wrap;rounded=0;fontStyle=1;fontColor=#6600CC;" parent="1" vertex="1">
          <mxGeometry x="110" y="1090" width="120" height="30" as="geometry" />
        </mxCell>
        <mxCell id="3Gb79NHxu9fspyk5NEdr-118" style="edgeStyle=orthogonalEdgeStyle;rounded=0;orthogonalLoop=1;jettySize=auto;html=1;exitX=1;exitY=0.5;exitDx=0;exitDy=0;" parent="1" edge="1">
          <mxGeometry relative="1" as="geometry">
            <mxPoint x="540" y="1029.29" as="targetPoint" />
            <mxPoint x="480" y="1029.29" as="sourcePoint" />
          </mxGeometry>
        </mxCell>
        <mxCell id="3Gb79NHxu9fspyk5NEdr-119" style="edgeStyle=orthogonalEdgeStyle;rounded=0;orthogonalLoop=1;jettySize=auto;html=1;exitX=1;exitY=0.5;exitDx=0;exitDy=0;" parent="1" edge="1">
          <mxGeometry relative="1" as="geometry">
            <mxPoint x="540" y="1109.29" as="targetPoint" />
            <mxPoint x="480" y="1109.29" as="sourcePoint" />
          </mxGeometry>
        </mxCell>
        <mxCell id="3Gb79NHxu9fspyk5NEdr-120" value="&lt;font face=&quot;Courier New&quot;&gt;Encrypted Letter&lt;/font&gt;" style="text;html=1;align=center;verticalAlign=middle;whiteSpace=wrap;rounded=0;fontStyle=1;fontColor=#009900;" parent="1" vertex="1">
          <mxGeometry x="560" y="1010" width="120" height="30" as="geometry" />
        </mxCell>
        <mxCell id="3Gb79NHxu9fspyk5NEdr-122" value="&lt;font face=&quot;Courier New&quot;&gt;Encrypted Letter m_coord&lt;/font&gt;" style="text;html=1;align=center;verticalAlign=middle;whiteSpace=wrap;rounded=0;fontStyle=1;fontColor=#CC00CC;" parent="1" vertex="1">
          <mxGeometry x="560" y="1095" width="120" height="30" as="geometry" />
        </mxCell>
        <mxCell id="3Gb79NHxu9fspyk5NEdr-123" style="edgeStyle=orthogonalEdgeStyle;rounded=0;orthogonalLoop=1;jettySize=auto;html=1;exitX=1;exitY=0.5;exitDx=0;exitDy=0;" parent="1" edge="1">
          <mxGeometry relative="1" as="geometry">
            <mxPoint x="540" y="1068.6399999999999" as="targetPoint" />
            <mxPoint x="480" y="1068.6399999999999" as="sourcePoint" />
          </mxGeometry>
        </mxCell>
        <mxCell id="3Gb79NHxu9fspyk5NEdr-124" value="&lt;font face=&quot;Courier New&quot;&gt;Encrypted Letter n_coord&lt;/font&gt;" style="text;html=1;align=center;verticalAlign=middle;whiteSpace=wrap;rounded=0;fontStyle=1;fontColor=#CC00CC;" parent="1" vertex="1">
          <mxGeometry x="560" y="1053" width="120" height="30" as="geometry" />
        </mxCell>
        <mxCell id="3Gb79NHxu9fspyk5NEdr-127" style="edgeStyle=orthogonalEdgeStyle;rounded=0;orthogonalLoop=1;jettySize=auto;html=1;entryX=0.5;entryY=1;entryDx=0;entryDy=0;fillColor=#f8cecc;strokeColor=#b85450;" parent="1" source="3Gb79NHxu9fspyk5NEdr-126" target="3Gb79NHxu9fspyk5NEdr-106" edge="1">
          <mxGeometry relative="1" as="geometry">
            <Array as="points">
              <mxPoint x="385" y="1190" />
            </Array>
          </mxGeometry>
        </mxCell>
        <mxCell id="3Gb79NHxu9fspyk5NEdr-126" value="&lt;font face=&quot;Courier New&quot;&gt;encryptionSelector&lt;/font&gt;" style="text;html=1;align=center;verticalAlign=middle;whiteSpace=wrap;rounded=0;fontStyle=1;direction=east;rotation=0;" parent="1" vertex="1">
          <mxGeometry x="200" y="1170" width="150" height="30" as="geometry" />
        </mxCell>
        <mxCell id="3Gb79NHxu9fspyk5NEdr-128" value="&lt;span style=&quot;text-align: left;&quot;&gt;polybiusEncrypterOptions&lt;/span&gt;" style="rounded=0;whiteSpace=wrap;html=1;fillColor=#d5e8d4;strokeColor=#82b366;fontFamily=Courier New;fontStyle=1" parent="1" vertex="1">
          <mxGeometry x="290" y="1270" width="190" height="130" as="geometry" />
        </mxCell>
        <mxCell id="3Gb79NHxu9fspyk5NEdr-129" style="edgeStyle=orthogonalEdgeStyle;rounded=0;orthogonalLoop=1;jettySize=auto;html=1;exitX=1;exitY=0.5;exitDx=0;exitDy=0;" parent="1" source="3Gb79NHxu9fspyk5NEdr-130" edge="1">
          <mxGeometry relative="1" as="geometry">
            <mxPoint x="290" y="1295" as="targetPoint" />
          </mxGeometry>
        </mxCell>
        <mxCell id="3Gb79NHxu9fspyk5NEdr-130" value="&lt;font face=&quot;Courier New&quot;&gt;n4_coords&lt;/font&gt;&lt;div&gt;&lt;font face=&quot;Courier New&quot;&gt;(3 bit binary)&lt;/font&gt;&lt;/div&gt;" style="text;html=1;align=center;verticalAlign=middle;whiteSpace=wrap;rounded=0;fontStyle=1;fontColor=#6600CC;" parent="1" vertex="1">
          <mxGeometry x="110" y="1280" width="120" height="30" as="geometry" />
        </mxCell>
        <mxCell id="3Gb79NHxu9fspyk5NEdr-131" style="edgeStyle=orthogonalEdgeStyle;rounded=0;orthogonalLoop=1;jettySize=auto;html=1;exitX=1;exitY=0.5;exitDx=0;exitDy=0;" parent="1" source="3Gb79NHxu9fspyk5NEdr-132" edge="1">
          <mxGeometry relative="1" as="geometry">
            <mxPoint x="290" y="1375" as="targetPoint" />
          </mxGeometry>
        </mxCell>
        <mxCell id="3Gb79NHxu9fspyk5NEdr-132" value="&lt;font face=&quot;Courier New&quot;&gt;m4_coords&lt;/font&gt;&lt;div&gt;&lt;font face=&quot;Courier New&quot;&gt;(3 bit binary)&lt;/font&gt;&lt;/div&gt;" style="text;html=1;align=center;verticalAlign=middle;whiteSpace=wrap;rounded=0;fontStyle=1;fontColor=#6600CC;" parent="1" vertex="1">
          <mxGeometry x="110" y="1360" width="120" height="30" as="geometry" />
        </mxCell>
        <mxCell id="3Gb79NHxu9fspyk5NEdr-133" style="edgeStyle=orthogonalEdgeStyle;rounded=0;orthogonalLoop=1;jettySize=auto;html=1;exitX=1;exitY=0.5;exitDx=0;exitDy=0;" parent="1" edge="1">
          <mxGeometry relative="1" as="geometry">
            <mxPoint x="540" y="1299.29" as="targetPoint" />
            <mxPoint x="480" y="1299.29" as="sourcePoint" />
          </mxGeometry>
        </mxCell>
        <mxCell id="3Gb79NHxu9fspyk5NEdr-134" style="edgeStyle=orthogonalEdgeStyle;rounded=0;orthogonalLoop=1;jettySize=auto;html=1;exitX=1;exitY=0.5;exitDx=0;exitDy=0;" parent="1" edge="1">
          <mxGeometry relative="1" as="geometry">
            <mxPoint x="540" y="1379.29" as="targetPoint" />
            <mxPoint x="480" y="1379.29" as="sourcePoint" />
          </mxGeometry>
        </mxCell>
        <mxCell id="3Gb79NHxu9fspyk5NEdr-135" value="&lt;font face=&quot;Courier New&quot;&gt;Encrypted Letter&lt;/font&gt;" style="text;html=1;align=center;verticalAlign=middle;whiteSpace=wrap;rounded=0;fontStyle=1;fontColor=#009900;" parent="1" vertex="1">
          <mxGeometry x="560" y="1280" width="120" height="30" as="geometry" />
        </mxCell>
        <mxCell id="3Gb79NHxu9fspyk5NEdr-136" value="&lt;font face=&quot;Courier New&quot;&gt;Encrypted Letter m_coord&lt;/font&gt;" style="text;html=1;align=center;verticalAlign=middle;whiteSpace=wrap;rounded=0;fontStyle=1;fontColor=#CC00CC;" parent="1" vertex="1">
          <mxGeometry x="560" y="1365" width="120" height="30" as="geometry" />
        </mxCell>
        <mxCell id="3Gb79NHxu9fspyk5NEdr-137" style="edgeStyle=orthogonalEdgeStyle;rounded=0;orthogonalLoop=1;jettySize=auto;html=1;exitX=1;exitY=0.5;exitDx=0;exitDy=0;" parent="1" edge="1">
          <mxGeometry relative="1" as="geometry">
            <mxPoint x="540" y="1338.6399999999999" as="targetPoint" />
            <mxPoint x="480" y="1338.6399999999999" as="sourcePoint" />
          </mxGeometry>
        </mxCell>
        <mxCell id="3Gb79NHxu9fspyk5NEdr-138" value="&lt;font face=&quot;Courier New&quot;&gt;Encrypted Letter n_coord&lt;/font&gt;" style="text;html=1;align=center;verticalAlign=middle;whiteSpace=wrap;rounded=0;fontStyle=1;fontColor=#CC00CC;" parent="1" vertex="1">
          <mxGeometry x="560" y="1323" width="120" height="30" as="geometry" />
        </mxCell>
        <mxCell id="3Gb79NHxu9fspyk5NEdr-139" style="edgeStyle=orthogonalEdgeStyle;rounded=0;orthogonalLoop=1;jettySize=auto;html=1;entryX=0.5;entryY=1;entryDx=0;entryDy=0;fillColor=#f8cecc;strokeColor=#b85450;" parent="1" source="3Gb79NHxu9fspyk5NEdr-140" target="3Gb79NHxu9fspyk5NEdr-128" edge="1">
          <mxGeometry relative="1" as="geometry">
            <Array as="points">
              <mxPoint x="385" y="1460" />
            </Array>
          </mxGeometry>
        </mxCell>
        <mxCell id="3Gb79NHxu9fspyk5NEdr-140" value="&lt;font face=&quot;Courier New&quot;&gt;encryptionSelector&lt;/font&gt;" style="text;html=1;align=center;verticalAlign=middle;whiteSpace=wrap;rounded=0;fontStyle=1;direction=east;rotation=0;" parent="1" vertex="1">
          <mxGeometry x="200" y="1440" width="150" height="30" as="geometry" />
        </mxCell>
        <mxCell id="3Gb79NHxu9fspyk5NEdr-141" value="&lt;font face=&quot;Courier New&quot;&gt;...&lt;/font&gt;" style="text;html=1;align=center;verticalAlign=middle;whiteSpace=wrap;rounded=0;fontStyle=1;rotation=90;fontColor=#6600CC;" parent="1" vertex="1">
          <mxGeometry x="130" y="1180" width="60" height="30" as="geometry" />
        </mxCell>
        <mxCell id="3Gb79NHxu9fspyk5NEdr-142" value="&lt;font face=&quot;Courier New&quot;&gt;...&lt;/font&gt;" style="text;html=1;align=center;verticalAlign=middle;whiteSpace=wrap;rounded=0;fontStyle=1;rotation=90;" parent="1" vertex="1">
          <mxGeometry x="590" y="1180" width="60" height="30" as="geometry" />
        </mxCell>
        <mxCell id="3Gb79NHxu9fspyk5NEdr-143" value="&lt;span style=&quot;font-size: 17px;&quot;&gt;&lt;b&gt;Convert Letter&#39;s (m,n) to Encrypted Letter and Encrypted Letters (m,n)&lt;/b&gt;&lt;/span&gt;" style="text;html=1;align=left;verticalAlign=middle;whiteSpace=wrap;rounded=0;" parent="1" vertex="1">
          <mxGeometry x="120" y="960" width="840" height="30" as="geometry" />
        </mxCell>
        <mxCell id="3Gb79NHxu9fspyk5NEdr-144" value="" style="shape=curlyBracket;whiteSpace=wrap;html=1;rounded=1;flipH=1;labelPosition=right;verticalLabelPosition=middle;align=left;verticalAlign=middle;" parent="1" vertex="1">
          <mxGeometry x="700" y="1030" width="20" height="270" as="geometry" />
        </mxCell>
        <mxCell id="3Gb79NHxu9fspyk5NEdr-145" value="&lt;font face=&quot;Courier New&quot; style=&quot;font-size: 15px;&quot;&gt;Encrypted Word&lt;/font&gt;" style="text;html=1;align=center;verticalAlign=middle;whiteSpace=wrap;rounded=0;fontStyle=1;fontColor=#FF0000;fontSize=15;" parent="1" vertex="1">
          <mxGeometry x="730" y="1150" width="150" height="30" as="geometry" />
        </mxCell>
        <mxCell id="3Gb79NHxu9fspyk5NEdr-146" value="" style="shape=curlyBracket;whiteSpace=wrap;html=1;rounded=1;flipH=1;labelPosition=right;verticalLabelPosition=middle;align=left;verticalAlign=middle;" parent="1" vertex="1">
          <mxGeometry x="690" y="2040" width="20" height="300" as="geometry" />
        </mxCell>
        <mxCell id="3Gb79NHxu9fspyk5NEdr-147" value="&lt;font face=&quot;Courier New&quot; style=&quot;font-size: 15px;&quot;&gt;Encrypted Word Coords&lt;/font&gt;" style="text;html=1;align=center;verticalAlign=middle;whiteSpace=wrap;rounded=0;fontStyle=1;fontColor=#FF0000;fontSize=15;" parent="1" vertex="1">
          <mxGeometry x="720" y="2175" width="150" height="30" as="geometry" />
        </mxCell>
        <mxCell id="3Gb79NHxu9fspyk5NEdr-148" value="" style="shape=curlyBracket;whiteSpace=wrap;html=1;rounded=1;flipH=1;labelPosition=right;verticalLabelPosition=middle;align=left;verticalAlign=middle;" parent="1" vertex="1">
          <mxGeometry x="705" y="1575" width="20" height="300" as="geometry" />
        </mxCell>
        <mxCell id="3Gb79NHxu9fspyk5NEdr-149" value="&lt;font face=&quot;Courier New&quot; style=&quot;font-size: 15px;&quot;&gt;Word Coords&lt;/font&gt;" style="text;html=1;align=center;verticalAlign=middle;whiteSpace=wrap;rounded=0;fontStyle=1;fontColor=#FF0000;fontSize=15;" parent="1" vertex="1">
          <mxGeometry x="710" y="1710" width="150" height="30" as="geometry" />
        </mxCell>
        <mxCell id="XG64vlkq9O3piixc6rc2-5" value="&lt;font face=&quot;Courier New&quot;&gt;displayDriver&lt;/font&gt;" style="text;html=1;align=center;verticalAlign=middle;whiteSpace=wrap;rounded=0;fontStyle=1;fontColor=#000000;fontSize=15;" vertex="1" parent="1">
          <mxGeometry x="1260" y="1000" width="150" height="30" as="geometry" />
        </mxCell>
        <mxCell id="XG64vlkq9O3piixc6rc2-9" value="" style="shape=table;startSize=0;container=1;collapsible=0;childLayout=tableLayout;fontSize=16;" vertex="1" parent="1">
          <mxGeometry x="1055" y="1080" width="560" height="290" as="geometry" />
        </mxCell>
        <mxCell id="XG64vlkq9O3piixc6rc2-37" style="shape=tableRow;horizontal=0;startSize=0;swimlaneHead=0;swimlaneBody=0;strokeColor=inherit;top=0;left=0;bottom=0;right=0;collapsible=0;dropTarget=0;fillColor=none;points=[[0,0.5],[1,0.5]];portConstraint=eastwest;fontSize=16;" vertex="1" parent="XG64vlkq9O3piixc6rc2-9">
          <mxGeometry width="560" height="58" as="geometry" />
        </mxCell>
        <mxCell id="XG64vlkq9O3piixc6rc2-38" value="[31:24]" style="shape=partialRectangle;html=1;whiteSpace=wrap;connectable=0;strokeColor=inherit;overflow=hidden;fillColor=none;top=0;left=0;bottom=0;right=0;pointerEvents=1;fontSize=16;" vertex="1" parent="XG64vlkq9O3piixc6rc2-37">
          <mxGeometry width="140" height="58" as="geometry">
            <mxRectangle width="140" height="58" as="alternateBounds" />
          </mxGeometry>
        </mxCell>
        <mxCell id="XG64vlkq9O3piixc6rc2-39" value="[23:16]" style="shape=partialRectangle;html=1;whiteSpace=wrap;connectable=0;strokeColor=inherit;overflow=hidden;fillColor=none;top=0;left=0;bottom=0;right=0;pointerEvents=1;fontSize=16;" vertex="1" parent="XG64vlkq9O3piixc6rc2-37">
          <mxGeometry x="140" width="141" height="58" as="geometry">
            <mxRectangle width="141" height="58" as="alternateBounds" />
          </mxGeometry>
        </mxCell>
        <mxCell id="XG64vlkq9O3piixc6rc2-40" value="[15:8]" style="shape=partialRectangle;html=1;whiteSpace=wrap;connectable=0;strokeColor=inherit;overflow=hidden;fillColor=none;top=0;left=0;bottom=0;right=0;pointerEvents=1;fontSize=16;" vertex="1" parent="XG64vlkq9O3piixc6rc2-37">
          <mxGeometry x="281" width="139" height="58" as="geometry">
            <mxRectangle width="139" height="58" as="alternateBounds" />
          </mxGeometry>
        </mxCell>
        <mxCell id="XG64vlkq9O3piixc6rc2-41" value="[7:0]" style="shape=partialRectangle;html=1;whiteSpace=wrap;connectable=0;strokeColor=inherit;overflow=hidden;fillColor=none;top=0;left=0;bottom=0;right=0;pointerEvents=1;fontSize=16;" vertex="1" parent="XG64vlkq9O3piixc6rc2-37">
          <mxGeometry x="420" width="140" height="58" as="geometry">
            <mxRectangle width="140" height="58" as="alternateBounds" />
          </mxGeometry>
        </mxCell>
        <mxCell id="XG64vlkq9O3piixc6rc2-10" value="" style="shape=tableRow;horizontal=0;startSize=0;swimlaneHead=0;swimlaneBody=0;strokeColor=inherit;top=0;left=0;bottom=0;right=0;collapsible=0;dropTarget=0;fillColor=none;points=[[0,0.5],[1,0.5]];portConstraint=eastwest;fontSize=16;" vertex="1" parent="XG64vlkq9O3piixc6rc2-9">
          <mxGeometry y="58" width="560" height="58" as="geometry" />
        </mxCell>
        <mxCell id="XG64vlkq9O3piixc6rc2-11" value="letter_1" style="shape=partialRectangle;html=1;whiteSpace=wrap;connectable=0;strokeColor=inherit;overflow=hidden;fillColor=none;top=0;left=0;bottom=0;right=0;pointerEvents=1;fontSize=16;" vertex="1" parent="XG64vlkq9O3piixc6rc2-10">
          <mxGeometry width="140" height="58" as="geometry">
            <mxRectangle width="140" height="58" as="alternateBounds" />
          </mxGeometry>
        </mxCell>
        <mxCell id="XG64vlkq9O3piixc6rc2-12" value="letter_2" style="shape=partialRectangle;html=1;whiteSpace=wrap;connectable=0;strokeColor=inherit;overflow=hidden;fillColor=none;top=0;left=0;bottom=0;right=0;pointerEvents=1;fontSize=16;" vertex="1" parent="XG64vlkq9O3piixc6rc2-10">
          <mxGeometry x="140" width="141" height="58" as="geometry">
            <mxRectangle width="141" height="58" as="alternateBounds" />
          </mxGeometry>
        </mxCell>
        <mxCell id="XG64vlkq9O3piixc6rc2-13" value="letter_3" style="shape=partialRectangle;html=1;whiteSpace=wrap;connectable=0;strokeColor=inherit;overflow=hidden;fillColor=none;top=0;left=0;bottom=0;right=0;pointerEvents=1;fontSize=16;" vertex="1" parent="XG64vlkq9O3piixc6rc2-10">
          <mxGeometry x="281" width="139" height="58" as="geometry">
            <mxRectangle width="139" height="58" as="alternateBounds" />
          </mxGeometry>
        </mxCell>
        <mxCell id="XG64vlkq9O3piixc6rc2-22" value="letter_4" style="shape=partialRectangle;html=1;whiteSpace=wrap;connectable=0;strokeColor=inherit;overflow=hidden;fillColor=none;top=0;left=0;bottom=0;right=0;pointerEvents=1;fontSize=16;" vertex="1" parent="XG64vlkq9O3piixc6rc2-10">
          <mxGeometry x="420" width="140" height="58" as="geometry">
            <mxRectangle width="140" height="58" as="alternateBounds" />
          </mxGeometry>
        </mxCell>
        <mxCell id="XG64vlkq9O3piixc6rc2-14" value="" style="shape=tableRow;horizontal=0;startSize=0;swimlaneHead=0;swimlaneBody=0;strokeColor=inherit;top=0;left=0;bottom=0;right=0;collapsible=0;dropTarget=0;fillColor=none;points=[[0,0.5],[1,0.5]];portConstraint=eastwest;fontSize=16;" vertex="1" parent="XG64vlkq9O3piixc6rc2-9">
          <mxGeometry y="116" width="560" height="58" as="geometry" />
        </mxCell>
        <mxCell id="XG64vlkq9O3piixc6rc2-15" value="letter_i" style="shape=partialRectangle;html=1;whiteSpace=wrap;connectable=0;strokeColor=inherit;overflow=hidden;fillColor=none;top=0;left=0;bottom=0;right=0;pointerEvents=1;fontSize=16;" vertex="1" parent="XG64vlkq9O3piixc6rc2-14">
          <mxGeometry width="140" height="58" as="geometry">
            <mxRectangle width="140" height="58" as="alternateBounds" />
          </mxGeometry>
        </mxCell>
        <mxCell id="XG64vlkq9O3piixc6rc2-16" value="" style="shape=partialRectangle;html=1;whiteSpace=wrap;connectable=0;strokeColor=inherit;overflow=hidden;fillColor=none;top=0;left=0;bottom=0;right=0;pointerEvents=1;fontSize=16;" vertex="1" parent="XG64vlkq9O3piixc6rc2-14">
          <mxGeometry x="140" width="141" height="58" as="geometry">
            <mxRectangle width="141" height="58" as="alternateBounds" />
          </mxGeometry>
        </mxCell>
        <mxCell id="XG64vlkq9O3piixc6rc2-17" value="m_i" style="shape=partialRectangle;html=1;whiteSpace=wrap;connectable=0;strokeColor=inherit;overflow=hidden;fillColor=none;top=0;left=0;bottom=0;right=0;pointerEvents=1;fontSize=16;" vertex="1" parent="XG64vlkq9O3piixc6rc2-14">
          <mxGeometry x="281" width="139" height="58" as="geometry">
            <mxRectangle width="139" height="58" as="alternateBounds" />
          </mxGeometry>
        </mxCell>
        <mxCell id="XG64vlkq9O3piixc6rc2-23" value="n_i" style="shape=partialRectangle;html=1;whiteSpace=wrap;connectable=0;strokeColor=inherit;overflow=hidden;fillColor=none;top=0;left=0;bottom=0;right=0;pointerEvents=1;fontSize=16;" vertex="1" parent="XG64vlkq9O3piixc6rc2-14">
          <mxGeometry x="420" width="140" height="58" as="geometry">
            <mxRectangle width="140" height="58" as="alternateBounds" />
          </mxGeometry>
        </mxCell>
        <mxCell id="XG64vlkq9O3piixc6rc2-25" style="shape=tableRow;horizontal=0;startSize=0;swimlaneHead=0;swimlaneBody=0;strokeColor=inherit;top=0;left=0;bottom=0;right=0;collapsible=0;dropTarget=0;fillColor=none;points=[[0,0.5],[1,0.5]];portConstraint=eastwest;fontSize=16;" vertex="1" parent="XG64vlkq9O3piixc6rc2-9">
          <mxGeometry y="174" width="560" height="58" as="geometry" />
        </mxCell>
        <mxCell id="XG64vlkq9O3piixc6rc2-26" value="letterEncrypted_1" style="shape=partialRectangle;html=1;whiteSpace=wrap;connectable=0;strokeColor=inherit;overflow=hidden;fillColor=none;top=0;left=0;bottom=0;right=0;pointerEvents=1;fontSize=16;" vertex="1" parent="XG64vlkq9O3piixc6rc2-25">
          <mxGeometry width="140" height="58" as="geometry">
            <mxRectangle width="140" height="58" as="alternateBounds" />
          </mxGeometry>
        </mxCell>
        <mxCell id="XG64vlkq9O3piixc6rc2-27" value="letterEncrypted_2" style="shape=partialRectangle;html=1;whiteSpace=wrap;connectable=0;strokeColor=inherit;overflow=hidden;fillColor=none;top=0;left=0;bottom=0;right=0;pointerEvents=1;fontSize=16;" vertex="1" parent="XG64vlkq9O3piixc6rc2-25">
          <mxGeometry x="140" width="141" height="58" as="geometry">
            <mxRectangle width="141" height="58" as="alternateBounds" />
          </mxGeometry>
        </mxCell>
        <mxCell id="XG64vlkq9O3piixc6rc2-28" value="letterEncrypted_3" style="shape=partialRectangle;html=1;whiteSpace=wrap;connectable=0;strokeColor=inherit;overflow=hidden;fillColor=none;top=0;left=0;bottom=0;right=0;pointerEvents=1;fontSize=16;" vertex="1" parent="XG64vlkq9O3piixc6rc2-25">
          <mxGeometry x="281" width="139" height="58" as="geometry">
            <mxRectangle width="139" height="58" as="alternateBounds" />
          </mxGeometry>
        </mxCell>
        <mxCell id="XG64vlkq9O3piixc6rc2-29" value="letterEncrypted_4" style="shape=partialRectangle;html=1;whiteSpace=wrap;connectable=0;strokeColor=inherit;overflow=hidden;fillColor=none;top=0;left=0;bottom=0;right=0;pointerEvents=1;fontSize=16;" vertex="1" parent="XG64vlkq9O3piixc6rc2-25">
          <mxGeometry x="420" width="140" height="58" as="geometry">
            <mxRectangle width="140" height="58" as="alternateBounds" />
          </mxGeometry>
        </mxCell>
        <mxCell id="XG64vlkq9O3piixc6rc2-18" value="" style="shape=tableRow;horizontal=0;startSize=0;swimlaneHead=0;swimlaneBody=0;strokeColor=inherit;top=0;left=0;bottom=0;right=0;collapsible=0;dropTarget=0;fillColor=none;points=[[0,0.5],[1,0.5]];portConstraint=eastwest;fontSize=16;" vertex="1" parent="XG64vlkq9O3piixc6rc2-9">
          <mxGeometry y="232" width="560" height="58" as="geometry" />
        </mxCell>
        <mxCell id="XG64vlkq9O3piixc6rc2-19" value="encryptedLetter_i" style="shape=partialRectangle;html=1;whiteSpace=wrap;connectable=0;strokeColor=inherit;overflow=hidden;fillColor=none;top=0;left=0;bottom=0;right=0;pointerEvents=1;fontSize=16;" vertex="1" parent="XG64vlkq9O3piixc6rc2-18">
          <mxGeometry width="140" height="58" as="geometry">
            <mxRectangle width="140" height="58" as="alternateBounds" />
          </mxGeometry>
        </mxCell>
        <mxCell id="XG64vlkq9O3piixc6rc2-20" value="" style="shape=partialRectangle;html=1;whiteSpace=wrap;connectable=0;strokeColor=inherit;overflow=hidden;fillColor=none;top=0;left=0;bottom=0;right=0;pointerEvents=1;fontSize=16;" vertex="1" parent="XG64vlkq9O3piixc6rc2-18">
          <mxGeometry x="140" width="141" height="58" as="geometry">
            <mxRectangle width="141" height="58" as="alternateBounds" />
          </mxGeometry>
        </mxCell>
        <mxCell id="XG64vlkq9O3piixc6rc2-21" value="mEncrypted_i" style="shape=partialRectangle;html=1;whiteSpace=wrap;connectable=0;strokeColor=inherit;overflow=hidden;fillColor=none;top=0;left=0;bottom=0;right=0;pointerEvents=1;fontSize=16;" vertex="1" parent="XG64vlkq9O3piixc6rc2-18">
          <mxGeometry x="281" width="139" height="58" as="geometry">
            <mxRectangle width="139" height="58" as="alternateBounds" />
          </mxGeometry>
        </mxCell>
        <mxCell id="XG64vlkq9O3piixc6rc2-24" value="nEncrypted_i" style="shape=partialRectangle;html=1;whiteSpace=wrap;connectable=0;strokeColor=inherit;overflow=hidden;fillColor=none;top=0;left=0;bottom=0;right=0;pointerEvents=1;fontSize=16;" vertex="1" parent="XG64vlkq9O3piixc6rc2-18">
          <mxGeometry x="420" width="140" height="58" as="geometry">
            <mxRectangle width="140" height="58" as="alternateBounds" />
          </mxGeometry>
        </mxCell>
        <mxCell id="XG64vlkq9O3piixc6rc2-32" style="edgeStyle=orthogonalEdgeStyle;rounded=0;orthogonalLoop=1;jettySize=auto;html=1;fillColor=#f8cecc;strokeColor=#b85450;" edge="1" parent="1">
          <mxGeometry relative="1" as="geometry">
            <mxPoint x="1020" y="1058" as="targetPoint" />
            <mxPoint x="930" y="1058" as="sourcePoint" />
          </mxGeometry>
        </mxCell>
        <mxCell id="XG64vlkq9O3piixc6rc2-33" value="&lt;font face=&quot;Courier New&quot;&gt;Index&lt;/font&gt;" style="text;html=1;align=center;verticalAlign=middle;whiteSpace=wrap;rounded=0;fontStyle=1" vertex="1" parent="1">
          <mxGeometry x="950" y="1030" width="60" height="30" as="geometry" />
        </mxCell>
      </root>
    </mxGraphModel>
  </diagram>
</mxfile>
